<svg width="507" height="515" viewBox="0 0 507 515" fill="none" xmlns="http://www.w3.org/2000/svg">
<path d="M65.7978 410.672L89.6358 425.211C90.9822 425.938 92.4719 426.318 93.9829 426.318C95.494 426.318 96.9836 425.938 98.33 425.211L256.695 328.098C259.102 326.633 259.102 324.242 256.695 322.778L232.867 308.227C231.519 307.505 230.03 307.129 228.52 307.129C227.01 307.129 225.521 307.505 224.173 308.227L65.7978 405.362C63.4007 406.816 63.4007 409.207 65.7978 410.672Z" fill="#E6E6E6"/>
<g filter="url(#filter0_d_2_2)">
<path d="M81.0635 411.027L73.0294 406.105L72.938 406.041C72.3485 405.568 71.8837 404.942 71.5884 404.223C71.2931 403.504 71.1772 402.717 71.252 401.937V139.763L234.37 39.8922L242.496 44.8894L79.4079 144.728V406.924C79.3384 407.7 79.4535 408.482 79.7427 409.199C80.0319 409.916 80.486 410.544 81.0635 411.027Z" fill="#EBEBEB"/>
<path d="M242.526 44.8894V307.064C242.41 309.304 241.798 311.483 240.739 313.426C239.68 315.368 238.205 317.018 236.432 318.243L85.492 410.661C84.9082 411.096 84.234 411.375 83.5266 411.475C82.8192 411.574 82.0997 411.491 81.4292 411.232L81.0839 411.027C80.5058 410.547 80.0511 409.921 79.7618 409.206C79.4724 408.49 79.3577 407.709 79.4283 406.934V144.728L242.526 44.8894Z" fill="#F0F0F0"/>
<path d="M234.36 39.8922L242.526 44.8894L79.4078 144.76L71.2418 139.763L234.36 39.8922Z" fill="#FAFAFA"/>
<path d="M79.9157 413.698L78.0367 412.556L77.9453 412.492C77.3579 412.014 76.8948 411.386 76.5998 410.666C76.3049 409.946 76.1877 409.159 76.2593 408.378V144.297L243.461 41.9815L245.492 43.1985L78.2196 145.503V409.595C78.1537 410.375 78.2747 411.16 78.5712 411.877C78.8677 412.594 79.3302 413.221 79.9157 413.698Z" fill="#656565"/>
<path opacity="0.1" d="M79.9157 413.698L78.0367 412.556L77.9453 412.492C77.3579 412.014 76.8948 411.386 76.5998 410.666C76.3049 409.946 76.1877 409.159 76.2593 408.378V144.297L243.461 41.9815L245.492 43.1985L78.2196 145.503V409.595C78.1537 410.375 78.2747 411.16 78.5712 411.877C78.8677 412.594 79.3302 413.221 79.9157 413.698Z" fill="black"/>
<path d="M245.462 43.1555V307.236C245.345 309.476 244.733 311.656 243.674 313.598C242.615 315.54 241.14 317.191 239.368 318.416L84.3137 413.332C83.73 413.767 83.0558 414.046 82.3484 414.146C81.641 414.245 80.9215 414.162 80.251 413.903L79.9057 413.698C79.3276 413.218 78.8729 412.592 78.5835 411.877C78.2942 411.161 78.1795 410.38 78.2501 409.606V145.514L245.462 43.1555Z" fill="#656565"/>
<path opacity="0.05" d="M245.462 43.1555V307.236C245.345 309.476 244.733 311.656 243.674 313.598C242.615 315.54 241.14 317.191 239.368 318.416L84.3137 413.332C83.73 413.767 83.0558 414.046 82.3484 414.146C81.641 414.245 80.9215 414.162 80.251 413.903L79.9057 413.698C79.3276 413.218 78.8729 412.592 78.5835 411.877C78.2942 411.161 78.1795 410.38 78.2501 409.606V145.514L245.462 43.1555Z" fill="black"/>
<path d="M243.461 41.9276L245.462 43.1554L78.2602 145.514L76.2593 144.286L243.461 41.9276Z" fill="#656565"/>
<path opacity="0.4" d="M243.461 41.9276L245.462 43.1554L78.2602 145.514L76.2593 144.286L243.461 41.9276Z" fill="white"/>
<path d="M83.1151 415.647L81.2666 414.506L81.1752 414.441C80.5879 413.966 80.1247 413.34 79.8296 412.622C79.5346 411.904 79.4174 411.117 79.4892 410.338V146.246L246.691 43.9309L248.722 45.1479L81.5205 147.463V411.555C81.4429 412.324 81.5481 413.101 81.8266 413.816C82.1052 414.531 82.5482 415.161 83.1151 415.647Z" fill="#656565"/>
<path opacity="0.1" d="M83.1151 415.647L81.2666 414.506L81.1752 414.441C80.5879 413.966 80.1247 413.34 79.8296 412.622C79.5346 411.904 79.4174 411.117 79.4892 410.338V146.246L246.691 43.9309L248.722 45.1479L81.5205 147.463V411.555C81.4429 412.324 81.5481 413.101 81.8266 413.816C82.1052 414.531 82.5482 415.161 83.1151 415.647Z" fill="black"/>
<path d="M248.661 45.1048V309.197C248.545 311.435 247.932 313.613 246.874 315.554C245.815 317.494 244.339 319.143 242.567 320.365L87.5435 415.281C86.9617 415.721 86.2872 416.002 85.5791 416.102C84.8709 416.201 84.1505 416.116 83.4808 415.852L83.1355 415.658C82.5573 415.176 82.1027 414.548 81.8134 413.831C81.5241 413.114 81.4094 412.331 81.4799 411.555V147.463L248.661 45.1048Z" fill="#656565"/>
<path d="M246.66 43.8878L248.661 45.1049L81.4596 147.463L79.4587 146.246L246.66 43.8878Z" fill="#656565"/>
<path opacity="0.4" d="M246.66 43.8878L248.661 45.1049L81.4596 147.463L79.4587 146.246L246.66 43.8878Z" fill="white"/>
<path d="M93.2923 418.523L85.2583 413.601L85.1668 413.537C84.5788 413.062 84.1151 412.436 83.8199 411.718C83.5248 410.999 83.408 410.213 83.4808 409.433V147.259L246.599 47.3881L254.725 52.3854L91.6367 152.267V414.42C91.5681 415.196 91.6837 415.978 91.9728 416.694C92.262 417.411 92.7156 418.04 93.2923 418.523Z" fill="#EBEBEB"/>
<path d="M254.755 52.3854V314.56C254.638 316.8 254.025 318.979 252.967 320.921C251.908 322.863 250.433 324.514 248.661 325.739L97.7207 418.146C97.1386 418.585 96.4647 418.867 95.7569 418.968C95.0492 419.07 94.3289 418.987 93.6579 418.728L93.3126 418.523C92.7359 418.04 92.2823 417.411 91.9931 416.694C91.704 415.978 91.5885 415.196 91.6571 414.42V152.267L254.755 52.3854Z" fill="#F5F5F5"/>
<path d="M246.599 47.3881L254.755 52.3854L91.6368 152.245L83.4808 147.259L246.599 47.3881Z" fill="#FAFAFA"/>
<g style="mix-blend-mode:multiply">
<path d="M103.866 154.744C106.12 153.365 107.928 154.474 107.928 157.242C107.853 158.741 107.446 160.199 106.74 161.5C106.034 162.8 105.049 163.906 103.866 164.727C101.621 166.106 99.8028 164.986 99.8028 162.229C99.8788 160.731 100.286 159.273 100.992 157.972C101.698 156.672 102.682 155.566 103.866 154.744Z" fill="#E0E0E0"/>
</g>
<path d="M92.4391 120.247C88.0006 117.533 83.7449 117.135 80.4642 119.17C77.1836 121.206 75.3858 125.277 75.3858 130.727C75.4036 132.791 75.6421 134.847 76.0968 136.855L78.8188 135.185C78.543 133.717 78.4035 132.224 78.4024 130.727C78.4024 126.419 79.672 123.349 81.9776 121.927C84.2832 120.506 87.4724 120.85 90.946 123.004C98.6957 127.743 105.003 139.321 105.003 148.852C105.059 150.905 104.666 152.943 103.855 154.808C103.317 155.979 102.471 156.959 101.418 157.63L101.174 157.77C100.497 158.91 100.06 160.193 99.8942 161.529C100.967 161.354 102 160.97 102.941 160.398C104.959 159.12 106.462 157.1 107.166 154.722C107.77 152.833 108.062 150.847 108.03 148.852C107.949 138.319 100.971 125.492 92.4391 120.247Z" fill="#455A64"/>
<g style="mix-blend-mode:multiply">
<path d="M123.671 142.574C125.926 141.195 127.734 142.304 127.734 145.072C127.659 146.57 127.252 148.029 126.546 149.329C125.84 150.63 124.855 151.736 123.671 152.557C121.427 153.936 119.609 152.816 119.609 150.059C119.686 148.561 120.094 147.103 120.8 145.803C121.506 144.503 122.489 143.397 123.671 142.574Z" fill="#E0E0E0"/>
</g>
<path d="M112.194 108.109C107.766 105.395 103.51 104.997 100.219 107.032C96.9284 109.068 95.1408 113.15 95.1408 118.589C95.1586 120.653 95.3971 122.709 95.8518 124.717L98.5332 123.037C98.2623 121.568 98.1229 120.075 98.1167 118.578C98.1167 114.27 99.3864 111.2 101.702 109.779C104.018 108.357 107.187 108.702 110.66 110.856C118.41 115.595 124.717 127.172 124.717 136.704C124.779 138.757 124.386 140.797 123.57 142.66C123.029 143.828 122.183 144.808 121.132 145.481L120.888 145.621C120.211 146.762 119.774 148.044 119.609 149.38C120.678 149.224 121.711 148.858 122.656 148.303C124.671 147.025 126.177 145.011 126.891 142.638C127.485 140.742 127.777 138.755 127.754 136.758C127.764 126.192 120.787 113.365 112.194 108.109Z" fill="#455A64"/>
<g style="mix-blend-mode:multiply">
<path d="M143.487 130.49C145.732 129.111 147.55 130.231 147.55 132.988C147.482 134.496 147.078 135.964 146.372 137.275C145.666 138.585 144.677 139.7 143.487 140.527C141.232 141.906 139.424 140.786 139.424 138.039C139.491 136.53 139.894 135.059 140.6 133.747C141.306 132.434 142.296 131.318 143.487 130.49Z" fill="#E0E0E0"/>
</g>
<path d="M132.051 95.9932C127.612 93.2791 123.356 92.8807 120.066 94.9162C116.775 96.9517 114.987 101.034 114.987 106.472C115.004 108.537 115.243 110.593 115.698 112.601L118.42 110.931C118.149 109.462 118.01 107.969 118.004 106.472C118.004 102.164 119.273 99.095 121.589 97.6733C123.905 96.2517 127.074 96.5963 130.547 98.7503C138.297 103.489 144.605 115.067 144.605 124.598C144.666 126.651 144.273 128.691 143.457 130.554C142.916 131.723 142.07 132.702 141.019 133.376L140.786 133.516C140.103 134.654 139.662 135.937 139.496 137.275C140.565 137.115 141.597 136.75 142.543 136.198C144.555 134.918 146.057 132.904 146.768 130.533C147.362 128.637 147.654 126.65 147.631 124.652C147.57 114.065 140.593 101.238 132.051 95.9932Z" fill="#455A64"/>
<g style="mix-blend-mode:multiply">
<path d="M163.293 118.363C165.538 116.984 167.356 118.104 167.356 120.861C167.288 122.369 166.884 123.837 166.178 125.148C165.472 126.458 164.483 127.573 163.293 128.4C161.038 129.779 159.23 128.669 159.23 125.912C159.297 124.403 159.7 122.932 160.406 121.62C161.112 120.307 162.102 119.191 163.293 118.363Z" fill="#E0E0E0"/>
</g>
<path d="M151.816 83.8661C147.377 81.1521 143.122 80.7536 139.841 82.7891C136.56 84.8247 134.763 88.9065 134.763 94.3454C134.778 96.4108 135.02 98.4673 135.484 100.474L138.145 98.7826C137.874 97.3136 137.734 95.8207 137.728 94.3238C137.728 90.0158 138.998 86.9464 141.314 85.5247C143.63 84.1031 146.798 84.4477 150.272 86.6017C158.022 91.3405 164.329 102.918 164.329 112.45C164.393 114.505 164.003 116.548 163.192 118.416C162.644 119.581 161.795 120.556 160.744 121.227L160.51 121.367C159.827 122.506 159.387 123.789 159.22 125.126C160.289 124.967 161.322 124.602 162.267 124.049C164.28 122.77 165.782 120.755 166.493 118.384C167.091 116.49 167.383 114.501 167.356 112.504C167.376 101.938 160.398 89.1111 151.816 83.8661Z" fill="#455A64"/>
<g style="mix-blend-mode:multiply">
<path d="M183.099 106.235C185.344 104.857 187.162 105.977 187.162 108.734C187.093 110.242 186.69 111.71 185.984 113.021C185.277 114.331 184.289 115.446 183.099 116.273C180.844 117.652 179.036 116.542 179.036 113.785C179.103 112.276 179.506 110.805 180.212 109.493C180.918 108.18 181.907 107.064 183.099 106.235Z" fill="#E0E0E0"/>
</g>
<path d="M171.662 71.7391C167.224 69.0251 162.968 68.6266 159.687 70.6621C156.407 72.6976 154.609 76.7795 154.609 82.2183C154.625 84.2838 154.867 86.3403 155.33 88.3465L158.052 86.6771C157.773 85.2092 157.63 83.7158 157.626 82.2183C157.626 77.9103 158.905 74.8409 161.211 73.4192C163.517 71.9976 166.706 72.3422 170.179 74.4962C177.929 79.235 184.226 90.8128 184.226 100.344C184.29 102.4 183.9 104.443 183.089 106.311C182.538 107.476 181.69 108.454 180.641 109.133L180.407 109.262C179.729 110.402 179.289 111.684 179.117 113.021C180.185 112.856 181.217 112.492 182.164 111.944C184.177 110.659 185.679 108.642 186.39 106.268C186.988 104.373 187.28 102.385 187.253 100.387C187.182 89.8004 180.204 76.9841 171.662 71.7391Z" fill="#455A64"/>
<g style="mix-blend-mode:multiply">
<path d="M202.905 94.1084C205.159 92.7299 206.967 93.85 206.967 96.6071C206.901 98.1149 206.498 99.5844 205.792 100.895C205.085 102.206 204.096 103.32 202.905 104.146C200.65 105.525 198.842 104.415 198.842 101.658C198.908 100.149 199.31 98.6774 200.017 97.365C200.723 96.0525 201.713 94.9365 202.905 94.1084Z" fill="#E0E0E0"/>
</g>
<path d="M191.428 59.6443C186.989 56.9303 182.733 56.5426 179.453 58.5673C176.172 60.5921 174.374 64.6847 174.374 70.1236C174.386 72.1886 174.625 74.2451 175.085 76.2517L177.756 74.5285C177.477 73.0606 177.334 71.5672 177.33 70.0697C177.33 65.7617 178.61 62.6922 180.915 61.2706C183.221 59.849 186.41 60.2475 189.884 62.3476C197.633 67.0864 203.931 78.6642 203.931 88.1957C203.995 90.2514 203.606 92.2946 202.793 94.1623C202.246 95.3269 201.402 96.3049 200.355 96.984L200.112 97.1132C199.433 98.2538 198.993 99.5356 198.822 100.872C199.891 100.713 200.923 100.348 201.869 99.795C203.894 98.514 205.408 96.4913 206.124 94.1084C206.723 92.214 207.015 90.2257 206.988 88.228C206.988 77.6949 200.01 64.857 191.428 59.6443Z" fill="#455A64"/>
<g style="mix-blend-mode:multiply">
<path d="M222.71 81.9814C224.965 80.6028 226.773 81.7229 226.773 84.48C226.707 85.9878 226.304 87.4574 225.597 88.7679C224.891 90.0785 223.902 91.1927 222.71 92.019C220.456 93.3976 218.648 92.2883 218.648 89.5312C218.714 88.0217 219.116 86.5503 219.822 85.2379C220.529 83.9255 221.518 82.8094 222.71 81.9814Z" fill="#E0E0E0"/>
</g>
<path d="M211.274 47.485C206.835 44.771 202.58 44.3832 199.299 46.408C196.018 48.4328 194.221 52.5254 194.221 57.9642C194.233 60.0293 194.471 62.0858 194.932 64.0924L197.654 62.423C197.374 60.9552 197.231 59.4617 197.227 57.9642C197.227 53.6562 198.507 50.5868 200.812 49.1651C203.118 47.7435 206.307 48.1527 209.781 50.2421C217.53 54.9809 223.838 66.5587 223.838 76.0902C223.9 78.1468 223.507 80.1901 222.69 82.0568C222.144 83.2215 221.299 84.1994 220.252 84.8785L220.009 85.0078C219.318 86.131 218.86 87.3978 218.668 88.7234C219.737 88.5641 220.77 88.1991 221.715 87.6464C223.727 86.3621 225.23 84.3443 225.94 81.9706C226.539 80.0762 226.831 78.0879 226.804 76.0902C226.793 65.5679 219.816 52.7408 211.274 47.485Z" fill="#455A64"/>
<g style="mix-blend-mode:multiply">
<path d="M242.516 69.8544C244.771 68.4758 246.579 69.5959 246.579 72.353C246.512 73.8608 246.109 75.3303 245.403 76.6409C244.697 77.9515 243.707 79.0657 242.516 79.892C240.261 81.2706 238.453 80.1613 238.453 77.4041C238.519 75.8947 238.922 74.4233 239.628 73.1109C240.334 71.7984 241.324 70.6824 242.516 69.8544Z" fill="#E0E0E0"/>
</g>
<path d="M231.039 35.358C226.601 32.6439 222.345 32.2562 219.064 34.281C215.784 36.3057 213.986 40.3983 213.986 45.8372C213.997 47.9023 214.236 49.9589 214.697 51.9653L217.368 50.2744C217.088 48.8066 216.946 47.3131 216.941 45.8156C216.941 41.5615 218.221 38.4382 220.527 37.0165C222.832 35.5949 226.022 36.0042 229.495 38.0935C237.245 42.8324 243.552 54.4209 243.552 63.9416C243.608 65.9976 243.215 68.0395 242.405 69.9082C241.861 71.0749 241.015 72.0536 239.967 72.7299L239.723 72.8699C239.042 74.0043 238.605 75.284 238.443 76.6179C239.512 76.4581 240.545 76.0932 241.49 75.5409C243.503 74.2574 245.006 72.2393 245.716 69.8651C246.32 67.9722 246.612 65.9829 246.579 63.9847C246.599 53.4408 239.622 40.6137 231.039 35.358Z" fill="#455A64"/>
<g opacity="0.3">
<path d="M104.14 174.55L242.273 89.9943C244.68 88.5188 246.63 89.7143 246.63 92.6545V101.981C246.55 103.581 246.115 105.138 245.359 106.525C244.604 107.912 243.55 109.089 242.283 109.962L104.15 194.517C101.743 195.993 99.8032 194.797 99.8032 191.857V182.53C99.8842 180.932 100.319 179.377 101.073 177.991C101.826 176.604 102.877 175.425 104.14 174.55Z" stroke="#656565" stroke-miterlimit="10"/>
<path d="M246.589 97.3179L99.7927 187.194" stroke="#656565" stroke-miterlimit="10"/>
</g>
<g opacity="0.3">
<path d="M104.14 204.512L242.272 119.956C244.68 118.492 246.62 119.676 246.62 122.617V301.69C246.54 303.289 246.104 304.846 245.349 306.233C244.593 307.62 243.539 308.798 242.272 309.67L104.14 394.226C101.743 395.701 99.7927 394.506 99.7927 391.566V212.493C99.8749 210.894 100.311 209.338 101.067 207.951C101.822 206.565 102.875 205.386 104.14 204.512Z" stroke="#656565" stroke-miterlimit="10"/>
<path d="M246.589 127.28L99.7927 217.156" stroke="#656565" stroke-miterlimit="10"/>
<path d="M246.589 137.264L99.7927 227.14" stroke="#656565" stroke-miterlimit="10"/>
<path d="M246.589 147.248L99.7927 237.124" stroke="#656565" stroke-miterlimit="10"/>
<path d="M246.589 157.232L99.7927 247.118" stroke="#656565" stroke-miterlimit="10"/>
<path d="M246.589 167.215L99.7927 257.102" stroke="#656565" stroke-miterlimit="10"/>
<path d="M246.589 177.199L99.7927 267.086" stroke="#656565" stroke-miterlimit="10"/>
<path d="M246.589 187.183L99.7927 277.07" stroke="#656565" stroke-miterlimit="10"/>
<path d="M246.589 197.178L99.7927 287.053" stroke="#656565" stroke-miterlimit="10"/>
<path d="M246.589 207.161L99.7927 297.037" stroke="#656565" stroke-miterlimit="10"/>
<path d="M246.589 217.145L99.7927 307.021" stroke="#656565" stroke-miterlimit="10"/>
<path d="M246.589 227.129L99.7927 317.005" stroke="#656565" stroke-miterlimit="10"/>
<path d="M246.589 237.113L99.7927 326.999" stroke="#656565" stroke-miterlimit="10"/>
<path d="M246.589 247.097L99.7927 336.983" stroke="#656565" stroke-miterlimit="10"/>
<path d="M246.589 257.08L99.7927 346.967" stroke="#656565" stroke-miterlimit="10"/>
<path d="M246.589 267.075L99.7927 356.951" stroke="#656565" stroke-miterlimit="10"/>
<path d="M246.589 277.059L99.7927 366.935" stroke="#656565" stroke-miterlimit="10"/>
<path d="M246.589 287.043L99.7927 376.918" stroke="#656565" stroke-miterlimit="10"/>
<path d="M246.589 297.026L99.7927 386.902" stroke="#656565" stroke-miterlimit="10"/>
</g>
<path d="M105.927 216.111C105.846 211.06 105.846 207.054 105.927 206.289C105.935 205.776 106.072 205.274 106.323 204.835C106.323 204.835 106.323 204.835 106.395 204.77C106.466 204.706 106.76 204.921 107.156 205.934C107.41 206.44 107.806 207.334 108.03 207.904C108.253 208.475 108.883 209.746 109.34 210.802C110.173 212.751 110.823 214.13 111.189 214.819L111.392 215.153V213.505C111.392 212.6 111.392 210.5 111.31 208.885C111.229 207.269 111.239 205.083 111.239 204.049C111.239 201.959 111.239 201.841 111.564 201.658C111.889 201.475 111.93 201.55 111.991 201.819C112.052 202.089 112.072 203.187 112.113 204.598C112.153 206.009 112.113 208.185 112.194 209.369C112.285 212.966 112.296 217.091 112.194 217.447C112.072 218.039 111.757 218.351 111.514 218.136C110.696 216.769 109.996 215.327 109.421 213.828C109.076 213.009 108.588 211.9 108.314 211.383L107.359 209.348C106.973 208.529 106.872 208.271 106.841 208.432C106.811 208.594 106.841 215.271 106.913 217.899C106.973 220.053 106.913 220.764 106.75 221.13C106.588 221.496 106.425 221.529 106.303 221.41C106.181 221.292 105.998 220.247 105.927 216.111Z" fill="#455A64"/>
<path d="M114.083 214C113.963 213.468 113.922 212.92 113.961 212.374C113.904 211.421 114.029 210.465 114.327 209.563C114.626 208.73 115.037 207.946 115.546 207.237C115.723 206.935 115.972 206.687 116.268 206.519C116.564 206.351 116.896 206.268 117.232 206.278C117.588 206.325 117.92 206.493 118.179 206.757C118.437 207.021 118.607 207.367 118.664 207.743C118.801 208.734 118.825 209.74 118.735 210.737C118.561 212.262 117.901 213.679 116.866 214.754C116.57 215.086 116.189 215.318 115.769 215.422C114.957 215.605 114.347 215.099 114.083 214ZM117.984 209.563C118.021 209.196 117.968 208.825 117.831 208.486C117.775 208.273 117.677 208.075 117.544 207.904C117.411 207.733 117.246 207.594 117.059 207.495C116.927 207.495 116.765 207.495 116.43 207.732C115.88 208.057 115.475 208.599 115.302 209.24C114.828 210.237 114.657 211.366 114.815 212.471C114.857 213.029 115.031 213.566 115.322 214.033C115.698 214.496 116.125 214.388 116.866 213.656C117.67 212.467 118.064 211.023 117.984 209.563Z" fill="#455A64"/>
<path d="M121 207.194V204.135L120.858 204.264C120.591 204.584 120.236 204.807 119.842 204.9C119.527 204.9 119.365 204.77 119.436 204.533C119.578 204.103 119.751 203.898 120.33 203.456C120.551 203.318 120.756 203.152 120.939 202.961C120.971 202.603 120.971 202.242 120.939 201.884C120.939 200.215 121.041 197.468 121.112 197.124C121.183 196.779 121.213 196.79 121.305 196.736C121.396 196.682 121.447 196.736 121.528 196.822C121.61 196.908 121.772 197.63 121.843 200.225L121.914 202.153C121.914 202.153 122.138 202.153 122.453 201.949C123.031 201.647 123.204 201.658 123.285 202.024C123.309 202.097 123.316 202.176 123.306 202.253C123.295 202.33 123.267 202.403 123.224 202.466C123.113 202.649 123.011 202.735 122.554 203.015C122.348 203.147 122.151 203.295 121.965 203.456C121.785 205.559 121.761 207.672 121.894 209.778C121.894 210.037 121.894 210.575 121.985 210.952C121.985 211.577 121.985 211.652 121.894 211.889C121.802 212.126 121.457 212.385 121.305 212.299C121.152 212.212 121.031 211.146 121 207.194Z" fill="#455A64"/>
<path d="M124.118 207.344C124.002 205.094 124.595 202.866 125.804 201.012C126.241 200.398 126.972 199.676 127.561 199.741C127.695 199.77 127.823 199.828 127.935 199.91C128.048 199.993 128.143 200.098 128.216 200.221C128.29 200.344 128.338 200.481 128.36 200.624C128.382 200.767 128.376 200.914 128.343 201.055C127.878 202.736 127.058 204.283 125.946 205.578C125.195 206.526 125.073 206.774 125.103 207.129C125.195 207.711 125.52 208.206 125.835 208.131C126.924 207.63 127.825 206.758 128.394 205.654C128.557 205.33 128.608 205.277 128.78 205.201C128.953 205.126 129.075 205.201 129.075 205.363C128.82 206.045 128.479 206.686 128.059 207.269C127.145 208.615 126.505 209.186 125.804 209.315C124.738 209.488 124.24 208.885 124.118 207.344ZM127.165 202.347C127.33 202.082 127.415 201.771 127.409 201.453C127.409 201.184 127.409 201.098 127.287 201.066C127.241 201.054 127.194 201.054 127.148 201.065C127.102 201.076 127.059 201.099 127.023 201.13C126.738 201.315 126.495 201.565 126.312 201.863C125.614 202.899 125.193 204.115 125.093 205.384C125.093 205.535 125.093 205.546 125.388 205.234C126.078 204.343 126.674 203.375 127.165 202.347Z" fill="#455A64"/>
<path d="M130.771 205.804C130.334 205.697 130.212 205.524 130.222 205.126C130.233 204.727 130.223 204.803 130.436 204.673C130.65 204.552 130.896 204.507 131.137 204.544C131.676 204.609 132.219 204.459 132.66 204.124C132.888 204.016 133.077 203.833 133.199 203.602C133.322 203.371 133.371 203.105 133.341 202.843C133.341 202.401 133.341 202.347 133.188 202.078C132.882 201.627 132.495 201.243 132.051 200.947C131.847 200.841 131.668 200.69 131.524 200.504C131.38 200.319 131.276 200.102 131.218 199.87C131.069 199.426 131.026 198.951 131.092 198.485C131.157 198.019 131.33 197.578 131.594 197.199C131.706 197.031 131.851 196.891 132.02 196.79C132.66 196.402 133.676 196.445 133.981 197.038C134.03 197.116 134.056 197.207 134.056 197.301C134.056 197.395 134.03 197.487 133.981 197.565C133.859 197.953 133.595 198.039 133.087 197.781C132.894 197.705 132.071 197.511 132.071 198.427C132.071 199.342 132.264 199.504 133.087 199.978C133.604 200.313 134.001 200.82 134.216 201.421C134.431 202.021 134.452 202.681 134.275 203.295C134.121 203.821 133.858 204.304 133.507 204.71C133.156 205.116 132.725 205.434 132.244 205.643C131.778 205.849 131.266 205.905 130.771 205.804Z" fill="#455A64"/>
<path d="M135.829 196.844C135.863 196.467 135.967 196.101 136.134 195.767C136.286 195.379 136.621 195.077 136.794 195.293C136.902 195.462 136.969 195.657 136.986 195.86C137.004 196.064 136.973 196.269 136.896 196.456C136.827 196.608 136.731 196.745 136.612 196.858C136.493 196.97 136.355 197.057 136.205 197.113C136.022 197.188 135.87 197.038 135.829 196.844ZM135.829 202.724C135.862 202.347 135.965 201.981 136.134 201.647C136.286 201.259 136.621 200.958 136.794 201.173C136.902 201.342 136.969 201.537 136.986 201.741C137.004 201.944 136.973 202.149 136.896 202.336C136.753 202.639 136.505 202.87 136.205 202.983C136.022 203.08 135.87 202.886 135.829 202.724Z" fill="#455A64"/>
<path d="M180.052 204.889C180.052 204.663 179.676 204.727 179.554 204.781C178.539 205.413 177.655 206.256 176.954 207.258L176.07 208.335C175.298 209.208 174.831 209.283 174.669 208.551C174.669 208.551 174.394 208.314 174.303 208.314C172.211 208.314 171.398 210.252 169.986 211.545C169.489 209.682 167.742 211.448 166.939 212.622C165.314 215.045 161.952 215.756 160.073 218.007C160.073 217.285 159.921 216.574 159.24 216.553C159.264 215.937 159.093 215.33 158.753 214.83C158.713 214.79 158.664 214.761 158.611 214.746C158.558 214.731 158.502 214.73 158.448 214.743C156.823 215.11 155.879 217.436 155.32 219.051C155.432 216.973 155.533 214.883 155.554 212.805C155.554 212.406 154.873 212.546 154.863 212.902C154.751 216.262 153.543 218.696 151.704 221.345C151.242 222.033 150.722 222.675 150.15 223.263C149.398 223.896 148.535 224.364 147.611 224.641C147.243 224.746 146.898 224.925 146.595 225.169C146.321 225.423 146.025 225.65 145.712 225.847C145.549 225.934 145.265 225.847 145.041 225.933C144.359 226.432 143.796 227.092 143.396 227.861C142.786 227.344 142.38 227.409 141.679 228.001C141.151 228.421 140.664 229.272 140.166 229.617C138.846 230.435 139.587 229.466 138.907 228.712C138.023 227.721 137.068 228.637 136.306 229.315C135.381 230.117 134.653 231.144 134.184 232.309C134.001 231.372 133.574 230.586 132.66 230.748C131.289 230.974 130.436 233.645 129.908 234.668C129.337 236.069 128.434 237.29 127.287 238.211C126.684 238.686 125.991 239.016 125.256 239.181C125.042 239.181 124.931 239.019 124.687 239.127C124.32 239.319 123.978 239.561 123.671 239.848C122.971 240.333 123.946 240.71 122.564 240.279C121.67 239.999 121.772 239.644 121.366 238.911C121.274 238.761 121.051 238.793 120.929 238.847C120.331 239.223 119.831 239.752 119.477 240.387C118.908 241.184 117.567 243.887 116.562 243.963C114.886 244.092 114.845 239.568 114.815 238.513C114.754 236.359 115.008 234.205 115.079 232.051C115.079 231.814 114.601 231.814 114.571 232.051C114.09 234.971 113.411 237.85 112.539 240.667C111.666 243.349 110.315 245.847 110.193 248.734C110.193 248.906 110.528 248.981 110.539 248.82C110.742 245.815 112.225 243.144 113.129 240.344C113.596 238.901 113.982 237.393 114.317 235.885C114.185 237.411 114.185 238.947 114.317 240.473C114.439 241.55 114.429 244.404 115.779 244.716C116.795 244.953 117.953 243.359 118.461 242.713C118.837 242.239 119.72 240.365 120.299 240.128C121.447 239.665 121.203 241.098 121.833 241.593C122.463 242.089 122.849 241.841 123.448 241.367C124.23 240.753 123.905 240.15 125.307 239.848C125.642 239.784 125.997 240.031 126.404 239.848C127.624 239.204 128.672 238.245 129.451 237.059C130.108 235.901 130.688 234.695 131.187 233.451C131.35 233.117 131.868 231.76 132.305 231.674L133.645 233.225C133.645 233.742 133.645 234.248 133.645 234.765C133.645 235.282 134.316 235.013 134.336 234.668C134.468 232.697 135.453 229.606 137.637 229.541C138.917 229.541 138.449 230.155 139.252 230.963C139.327 231.036 139.425 231.076 139.526 231.076C139.628 231.076 139.725 231.036 139.8 230.963C140.44 230.295 142.045 227.484 143.122 228.572C143.167 228.609 143.219 228.635 143.274 228.649C143.33 228.664 143.387 228.666 143.443 228.656C143.499 228.646 143.553 228.624 143.601 228.591C143.649 228.558 143.689 228.515 143.721 228.464C143.985 228.109 145.123 226.02 145.569 226.644C145.701 226.827 145.996 226.741 146.118 226.644C146.677 226.053 147.326 225.565 148.038 225.201C148.281 225.072 148.576 225.061 148.84 224.943C150.029 224.308 151.049 223.368 151.806 222.207C153.031 220.692 154.016 218.975 154.721 217.124C154.639 218.847 154.538 220.57 154.426 222.293C153.99 225.032 153.827 227.811 153.939 230.586C153.939 231.006 154.639 230.812 154.65 230.446C154.761 227.678 154.954 224.91 155.127 222.142C155.229 221.69 155.33 221.238 155.462 220.785C155.848 219.439 156.224 217.554 157.26 216.564C158.062 215.842 158.509 216.24 158.55 216.93C158.407 217.132 158.306 217.365 158.253 217.611C158.201 217.858 158.198 218.114 158.245 218.362C158.296 218.664 158.794 218.491 158.885 218.362C158.928 218.279 158.966 218.193 158.997 218.104C159.342 217.931 159.464 218.039 159.342 218.427C159.22 218.815 159.342 219.095 159.271 219.418C159.2 219.741 159.86 219.601 159.951 219.418C160.845 217.479 163.781 215.713 165.589 214.83C166 214.703 166.388 214.502 166.736 214.237C166.838 214.13 169.164 210.36 169.377 212.266C169.377 212.514 169.702 212.568 169.875 212.439C170.89 211.706 171.358 210.285 172.485 209.714C175.217 208.217 173.419 209.832 174.943 210.102C175.898 210.263 179.432 205.643 179.402 205.47C179.463 205.815 180.113 205.6 180.052 205.244V204.889Z" fill="#455A64"/>
<path d="M215.408 181.529C214.694 182.824 213.812 184.006 212.787 185.04C212.33 186.343 211.213 186.72 209.446 186.117C209.338 185.956 209.208 185.815 209.06 185.697C208.897 185.697 208.613 185.557 208.399 185.557C207.079 185.621 206.368 189.348 205.281 187.765C205.17 187.603 204.906 187.678 204.784 187.765C203.998 188.276 203.346 188.986 202.884 189.832C202.702 190.166 202.6 190.791 202.387 191.006L202.234 191.168C202.121 191.177 202.011 191.21 201.909 191.265C201.828 191.265 201.31 191.092 201.117 191.136C200.731 191.232 200.487 191.652 200.274 191.965C199.907 192.681 199.585 193.422 199.309 194.183C199.244 194.296 199.19 194.415 199.147 194.539C199.185 194.391 199.178 194.234 199.127 194.091C199.076 193.948 198.983 193.825 198.862 193.742C197.847 193.031 196.922 194.711 196.293 195.896C196.079 194.7 195.714 193.44 194.383 194.022C192.778 194.711 192.23 196.176 191.732 197.716C191.732 195.562 191.458 192.417 189.772 192.74C188.655 192.966 187.507 195.164 187.009 196.047C186.308 197.274 185.994 199.105 185.1 200.139C184.907 200.355 185.384 200.505 185.537 200.355C186.786 199.084 187.344 196.585 188.38 195.088C188.807 194.463 189.487 193.15 190.493 194.076C190.777 194.345 190.696 195.562 190.747 196.025C190.899 197.274 190.899 198.513 191.021 199.762C191.021 200.172 191.631 199.956 191.742 199.708C192.098 198.933 192.25 198.136 192.575 197.339C192.741 196.557 193.157 195.86 193.753 195.368C195.084 195.368 195.734 195.917 195.703 197.102C195.775 197.468 196.232 197.328 196.394 197.102C196.821 196.531 198.182 193.613 198.618 195.304C198.669 195.519 198.842 195.551 199.035 195.519C200.051 195.336 200.833 190.888 201.767 192.288C201.879 192.449 202.153 192.385 202.265 192.288C203.28 191.523 203.829 187.592 205.312 189.391C205.353 189.433 205.403 189.463 205.458 189.479C205.514 189.494 205.572 189.493 205.627 189.477C206.48 189.208 206.642 188.4 207.191 187.765C207.739 187.129 207.404 187.14 208.206 186.871C209.669 186.375 208.379 186.871 209.273 187.011C209.882 187.118 210.055 187.388 210.736 187.334C211.562 187.234 212.327 186.821 212.889 186.171C213.539 185.384 213.996 184.404 214.646 183.586C215.191 183.006 215.635 182.328 215.956 181.583C216.048 181.346 215.509 181.346 215.408 181.529Z" fill="#455A64"/>
<path d="M237.621 170.845C237.116 170.842 236.625 171.012 236.219 171.329C235.021 172.03 233.893 173.01 232.715 173.764C232.106 174.151 231.598 174.733 231.019 175.11C229.536 176.079 229.119 174.894 228.155 173.785C228.101 173.751 228.039 173.733 227.977 173.733C227.914 173.733 227.853 173.751 227.799 173.785C226.55 174.119 226.59 175.153 225.625 175.799C224.986 176.219 225.016 176.305 224.508 175.53C224.193 175.067 224.183 174.56 223.787 174.119C223.655 173.968 223.432 174.033 223.289 174.119C222.152 174.851 221.492 176.144 220.588 177.156C219.684 178.168 218.556 180.462 217.124 180.99C216.87 181.087 217.124 181.356 217.297 181.303C218.313 181.066 218.8 180.226 219.481 179.364C220.161 178.502 220.842 177.77 221.512 176.973C221.857 176.574 222.528 175.336 222.832 175.228C224.234 174.787 223.736 178.276 225.575 176.984C226.072 176.628 226.143 175.831 226.59 175.465C227.962 174.388 227.86 175.185 228.622 175.734C229.384 176.284 229.516 176.908 230.409 176.682C230.653 176.628 230.795 176.348 231.009 176.241C231.164 176.063 231.3 175.868 231.415 175.659C232.191 174.877 233.111 174.272 234.117 173.882C235.183 173.117 236.219 171.793 237.509 171.502C237.844 171.383 238.078 170.823 237.621 170.845Z" fill="#455A64"/>
<path d="M154.03 242.11C153.563 244.016 150.851 246.537 149.388 244.124C148.748 243.047 149.114 240.742 149.114 239.515V233.806C149.114 232.396 149.114 230.974 149.114 229.498C149.114 228.971 148.322 229.175 148.322 229.606V232.352C148.322 236.897 147.966 241.184 145.945 245.46C145.527 246.608 144.97 247.693 144.29 248.691C142.99 250.198 141.801 250.015 141.009 249.337C141.182 248.992 141.334 248.648 141.497 248.346C141.811 247.786 142.725 246.774 142.441 245.998C142.045 244.921 140.196 244.986 139.678 245.912C139.434 246.465 139.342 247.081 139.414 247.687C139.486 248.293 139.719 248.865 140.085 249.337C139.445 250.274 138.642 251.254 137.667 250.252C137.577 250.185 137.466 250.157 137.357 250.173C137.248 250.189 137.148 250.248 137.078 250.338C136.57 250.985 136.327 251.792 135.859 252.428C135.23 253.279 135.179 254.582 133.889 254.582C133.634 254.604 133.38 254.523 133.178 254.356C132.538 253.796 133.351 252.525 133.473 251.857C133.717 250.913 133.608 249.906 133.168 249.046C133.118 248.968 133.042 248.913 132.955 248.893C132.868 248.872 132.777 248.889 132.701 248.938C131.834 249.365 131.132 250.094 130.712 251.004C130.293 251.913 130.181 252.949 130.395 253.936C130.507 254.323 131.005 254.862 130.801 255.163C130.598 255.465 129.786 255.497 129.501 255.379C128.992 255.172 128.546 254.822 128.211 254.366C127.318 253.289 125.794 257.597 125.5 258.157C124.799 259.558 124.311 260.861 123.011 261.733C122.78 261.905 122.501 261.989 122.219 261.97C121.609 261.852 121.802 261.151 121.691 260.699C121.691 260.915 121.62 259.622 121.691 259.698C121.691 259.525 121.406 259.525 121.295 259.558C120.553 259.762 120.513 260.247 120.055 260.968C119.842 261.313 119.507 261.938 119.263 262.261C119.16 262.534 119.003 262.78 118.804 262.984C118.604 263.188 118.366 263.346 118.105 263.446H117.547C116.866 263.962 116.348 264.759 115.658 265.244C114.53 266.03 113.555 266.547 113.423 264.641C113.418 264.027 113.367 263.415 113.271 262.81C113.21 262.519 112.763 262.659 112.651 262.81C111.942 263.86 111.352 264.995 110.894 266.192C110.61 266.946 108.639 271.986 107.847 268.561C107.613 267.484 108.863 265.524 109.299 264.566C110.112 262.724 110.193 262.218 112.763 261.938C113.078 261.938 114.012 262.024 114.205 262.024C114.398 262.024 114.398 261.722 114.205 261.712C112.529 261.712 111.463 260.753 110.021 262.132C109.005 263.069 108.7 264.576 108.162 265.783C107.517 266.819 107.164 268.03 107.146 269.272C107.268 270.468 107.928 271.308 109.106 270.672C109.797 270.295 110.244 269.186 110.579 268.518C111.331 266.967 111.869 265.406 112.682 263.919C112.753 265.072 112.682 266.16 113.525 267.064C113.573 267.115 113.635 267.149 113.702 267.162C113.769 267.176 113.838 267.168 113.9 267.14C114.858 266.619 115.741 265.955 116.521 265.169C117.262 264.555 118.339 264.383 119.009 263.726C119.616 262.935 120.144 262.08 120.584 261.173C120.769 260.928 120.942 260.673 121.102 260.408C121.068 260.802 121.068 261.199 121.102 261.593C121.437 263.079 122.503 262.972 123.529 262.185C124.374 261.421 125.065 260.483 125.56 259.428C126.292 258.147 126.789 256.197 127.754 255.023C127.912 255.394 128.153 255.718 128.457 255.966C128.76 256.215 129.116 256.381 129.494 256.451C129.872 256.52 130.26 256.489 130.624 256.363C130.988 256.236 131.318 256.016 131.583 255.723C131.583 255.723 131.685 255.605 131.736 255.562C132.348 255.767 133.001 255.79 133.624 255.629C134.247 255.467 134.817 255.127 135.27 254.646C135.74 254.127 136.127 253.53 136.418 252.88C136.591 252.471 136.784 252.051 136.977 251.652C137.281 251.064 137.596 251.02 137.921 251.523C138.724 251.523 138.805 251.846 139.587 251.34C140.051 251.007 140.428 250.555 140.684 250.026C140.938 250.285 141.239 250.486 141.57 250.615C141.9 250.745 142.252 250.801 142.604 250.78C145.122 250.478 146.605 245.966 147.428 243.984C147.766 243.145 148.048 242.281 148.271 241.399C148.21 242.735 148.271 244.189 149.023 245.061C151.298 247.614 154.223 244.63 154.843 242.132C154.964 241.572 154.142 241.658 154.03 242.11ZM131.086 252.148C131.289 250.888 133.016 248.992 132.752 251.308C132.679 251.794 132.571 252.273 132.426 252.74C132.346 253.081 132.233 253.413 132.091 253.731C132.069 253.801 132.041 253.869 132.01 253.936C131.106 254.022 130.822 253.731 131.086 252.148ZM139.983 246.827C139.978 246.675 140.012 246.524 140.081 246.391C140.151 246.258 140.254 246.148 140.379 246.073C140.496 246.042 140.618 246.042 140.735 246.073C140.901 246.072 141.064 246.125 141.202 246.224C141.284 246.297 141.35 246.387 141.396 246.489C141.442 246.592 141.465 246.703 141.466 246.817C141.483 247.184 141.362 247.544 141.131 247.818L140.593 248.637L140.491 248.788C140.491 248.788 140.136 247.98 140.105 247.883C140.021 247.612 139.976 247.328 139.973 247.043C139.968 246.971 139.972 246.899 139.983 246.827Z" fill="#455A64"/>
<path d="M197.054 213.214H196.8C196.737 213.225 196.679 213.255 196.632 213.301C196.585 213.347 196.551 213.407 196.536 213.473C195.939 214.931 195.107 216.268 194.078 217.425C191.448 220.172 191.549 216.122 191.407 214.7C191.407 214.41 191.041 214.431 190.869 214.55C189.744 215.375 188.878 216.537 188.38 217.888C188.228 218.211 187.365 220.322 187.182 220.258C187.436 220.355 187.05 218.395 186.887 218.104C186.725 217.813 186.623 217.974 186.522 218.018C185.317 218.603 184.249 219.465 183.397 220.542C182.546 221.619 181.93 222.883 181.596 224.243C181.301 223.963 180.925 223.92 180.356 224.243C179.788 224.566 179.239 226.16 178.772 226.235C178.772 226.235 178.213 225.481 177.98 225.417C176.751 225.061 175.268 227.021 174.547 227.764C172.647 229.757 173.643 226.827 171.936 226.687C171.867 226.676 171.796 226.684 171.73 226.71C171.664 226.737 171.606 226.781 171.561 226.838C170.792 228.336 169.927 229.775 168.971 231.146C168.067 232.342 167.335 232.805 166.939 230.909C166.685 229.606 167.732 228.195 167.894 226.881C167.894 226.58 167.447 226.59 167.325 226.774C165.172 230.005 163.72 233.451 161.079 236.316C160.886 236.52 161.363 236.65 161.516 236.488C163.75 234.173 165.121 231.437 166.746 228.723C166.218 230.435 165.649 232.632 166.919 233.171C168.189 233.709 169.407 231.48 169.905 230.737C170.37 229.744 170.931 228.805 171.581 227.937C172.231 227.323 171.804 227.334 172.475 228.163C172.729 228.475 172.769 229.003 173.125 229.24C173.29 229.398 173.5 229.495 173.722 229.514C173.944 229.534 174.166 229.475 174.354 229.348C174.933 228.981 177.401 224.178 178.173 226.871C178.224 227.032 178.437 227.064 178.569 227.011C179.148 226.784 180.885 223.78 181.433 225.438C181.524 225.74 182.073 225.6 182.083 225.309C182.175 223.155 183.282 221.787 184.582 220.322C185.13 219.708 185.679 218.502 186.522 219.547C186.541 219.998 186.585 220.447 186.654 220.893C186.715 221.109 186.989 221.076 187.131 221.012C188.939 220.139 189.162 217.027 190.706 215.465C190.777 217.124 190.706 219.493 192.859 219.095C193.689 218.848 194.394 218.263 194.82 217.468C195.307 216.757 195.754 216.036 196.252 215.314C196.323 215.207 197.135 213.656 197.186 213.634C197.562 213.548 197.359 213.171 197.054 213.214Z" fill="#455A64"/>
<path d="M231.161 193.72C230.885 193.689 230.607 193.721 230.344 193.814C230.081 193.907 229.84 194.058 229.637 194.259C229.231 194.604 229.008 195.142 228.622 195.508C226.59 197.404 225.575 195.325 225.361 193.354C225.311 192.945 224.793 193.16 224.661 193.354C223.828 194.7 224.173 196.197 223.137 197.662C222.324 198.739 219.328 202.67 218.77 199.375C218.709 199.03 218.282 199.127 218.12 199.321C217.337 200.225 216.86 201.335 216.088 202.283C215.651 202.832 214.402 204.361 213.965 204.34C212.797 204.264 212.787 202.379 212.716 201.615C212.716 201.27 212.259 201.367 212.097 201.529C211.711 201.916 208.44 209.165 207.536 208.421C207.292 208.228 206.754 208.594 207.049 208.841C208.775 210.274 210.878 205.158 212.025 202.853C212.025 204.103 212.117 205.384 213.701 205.061C215.855 204.63 216.941 202.003 218.17 200.247C218.658 201.658 219.775 202.067 221.116 201.033C222.296 199.985 223.308 198.742 224.112 197.35C224.488 196.569 224.729 195.722 224.823 194.851C225.128 196.025 225.717 197.081 227.088 197.124C228.967 197.188 229.272 194.367 231.029 194.248C231.374 194.27 231.587 193.742 231.161 193.72Z" fill="#455A64"/>
<path d="M137.982 269.283C138.632 268.464 139.1 267.807 140.166 267.797C140.268 267.79 140.37 267.812 140.461 267.861C140.535 267.9 140.598 267.96 140.643 268.034C140.832 268.372 141.089 268.662 141.396 268.882C141.704 269.102 142.054 269.246 142.421 269.304C143.437 269.38 145.214 267.646 146.484 265.826C147.499 266.246 149.277 264.749 150.059 263.984C150.475 263.575 149.876 263.187 149.51 263.553C149.303 264.008 148.981 264.394 148.579 264.666C148.177 264.937 147.712 265.086 147.235 265.093C147.174 265.093 147.093 265.093 147.093 265.018C147.174 264.286 148.667 262.422 147.489 261.895C146.311 261.367 145.661 263.478 145.722 264.286C145.727 264.658 145.806 265.025 145.955 265.363C145.671 265.858 145.366 266.353 145.031 266.827C144.664 267.208 144.277 267.568 143.873 267.904C143.68 268.139 143.436 268.32 143.162 268.432C142.707 268.495 142.245 268.392 141.852 268.141C141.172 267.581 142.36 266.773 142.705 266.332C143.199 265.72 143.616 265.043 143.944 264.318C144.401 263.241 144.615 261.819 143.142 261.765C141.111 261.765 140.044 264.813 140.42 267.075C140.003 267.117 139.595 267.23 139.211 267.409C138.529 267.871 137.938 268.471 137.474 269.175C136.642 270.252 136.246 270.845 136.306 269.024C136.306 268.68 135.788 268.755 135.687 269.024C135.037 270.915 134.145 272.701 133.036 274.334C132.345 275.174 131.289 276.122 130.487 275.713C131.315 274.4 131.917 272.941 132.264 271.405C132.498 270.328 133.28 266.957 131.35 266.795C129.796 266.666 129.319 270.101 129.095 271.103C128.727 272.65 128.841 274.282 129.42 275.756L129.562 275.982C129.216 276.514 128.829 277.015 128.404 277.479C127.683 278.244 126.688 279.396 125.561 279.385C125.455 279.395 125.348 279.379 125.25 279.338C125.151 279.297 125.063 279.232 124.992 279.148C124.525 278.524 125.652 277.317 125.896 276.746C126.273 275.844 126.403 274.848 126.272 273.871C126.262 273.806 126.231 273.747 126.185 273.704C126.139 273.66 126.079 273.636 126.018 273.634H125.733C125.657 273.628 125.581 273.642 125.511 273.676C125.442 273.71 125.382 273.762 125.337 273.828C124.399 275.263 123.925 276.983 123.986 278.728L123.245 279.59C122.605 280.354 121.376 282.627 120.442 280.731C120.405 280.691 120.361 280.66 120.311 280.642C120.262 280.623 120.209 280.617 120.157 280.624C119.538 280.753 119.466 281.001 119.06 281.582C118.654 282.164 118.217 283.532 117.212 282.562C117.212 282.562 117.212 281.194 117.141 281.011C117.069 280.828 116.663 280.861 116.541 281.011C115.576 282.153 115.14 283.973 114.185 285.147C114.344 284.314 114.568 283.496 114.855 282.702C114.987 282.304 114.317 282.325 114.215 282.648C113.413 284.975 112.56 287.538 110.884 289.304C110.62 289.752 110.215 290.086 109.742 290.25C109.269 290.413 108.756 290.395 108.294 290.198C107.982 289.669 107.839 289.048 107.884 288.425C107.93 287.803 108.163 287.213 108.548 286.741C108.975 285.675 109.679 284.759 110.579 284.102C111.493 283.65 111.889 283.747 111.768 284.393C111.768 284.662 112.265 284.619 112.296 284.393C112.428 283.058 111.28 283.208 110.325 283.65C108.782 284.404 106.913 287.495 107.024 289.304C107.116 290.877 108.71 291.329 109.95 290.844C111.676 290.187 112.814 288.217 113.647 286.192C113.716 286.209 113.787 286.212 113.857 286.199C113.927 286.186 113.994 286.158 114.053 286.116C115.292 285.201 115.759 283.435 116.572 282.045C116.572 283.068 116.44 284.124 117.801 283.855C118.715 283.672 118.816 282.918 119.345 282.282C120.249 281.205 119.639 281.711 120.523 282.282C121.752 283.068 122.554 281.507 123.224 280.645L124.24 279.482C124.285 279.607 124.343 279.726 124.413 279.837C125.55 281.302 127.013 279.837 127.968 278.911C128.714 278.207 129.395 277.428 129.999 276.585C131.929 278.459 134.509 273.354 135.728 270.629C135.731 270.74 135.761 270.849 135.814 270.945C135.867 271.041 135.941 271.122 136.031 271.181C136.12 271.239 136.221 271.274 136.326 271.281C136.431 271.288 136.536 271.267 136.631 271.221C137.129 270.92 137.688 269.66 137.982 269.283ZM125.154 276.822C125.093 276.983 125.022 277.134 124.951 277.285C124.778 277.64 124.687 277.759 124.657 277.285C124.653 276.568 124.784 275.858 125.043 275.196C125.103 274.927 125.242 274.686 125.439 274.506C125.52 274.442 125.662 274.409 125.703 274.506C125.711 274.534 125.711 274.564 125.703 274.592C125.723 274.811 125.723 275.031 125.703 275.249C125.643 275.626 125.526 275.99 125.357 276.326L125.154 276.822ZM129.908 274.916C129.695 274.31 129.602 273.665 129.633 273.02C129.59 271.412 129.852 269.811 130.405 268.314C130.435 268.213 130.48 268.119 130.537 268.034C130.622 267.93 130.737 267.86 130.864 267.832C130.99 267.805 131.122 267.823 131.238 267.883C131.356 267.943 131.46 268.029 131.544 268.134C131.628 268.24 131.69 268.364 131.726 268.497C131.797 268.763 131.828 269.039 131.817 269.315C131.843 270.256 131.722 271.194 131.462 272.094C131.169 272.87 130.829 273.625 130.446 274.356C130.314 274.625 130.172 274.883 130.03 275.131L129.908 274.916ZM141.304 266.623C141.256 266.582 141.218 266.53 141.192 266.472C141.172 266.376 141.172 266.277 141.192 266.181C141.177 265.394 141.276 264.61 141.486 263.855C141.73 263.122 142.208 262.368 143.03 262.412C143.145 262.41 143.258 262.444 143.355 262.508C144.137 263.069 143.355 264.339 143.02 264.91C142.765 265.294 142.48 265.655 142.167 265.987C141.994 266.256 141.568 266.881 141.304 266.676V266.623Z" fill="#455A64"/>
<path d="M152.994 262.767C152.588 262.767 152.364 263.435 152.872 263.435C153.38 263.435 153.512 262.767 152.994 262.767Z" fill="black"/>
</g>
<g filter="url(#filter1_d_2_2)">
<path d="M374.616 143.295C369.822 151.911 365.2 159.375 361.96 162.961C355.805 165.998 341.342 170.662 335.675 171.448C334.68 171.576 333.676 171.324 332.841 170.737C330.616 169.186 328.89 168.939 326.544 168.077C324.715 167.409 323.933 166.472 323.588 166.828C323.234 167.268 323.055 167.837 323.091 168.415C323.127 168.992 323.375 169.532 323.781 169.919C324.661 170.805 325.636 171.578 326.686 172.223C324.175 172.877 321.558 172.925 319.028 172.363C314.132 170.996 311.816 173.494 315.127 179.138C316.316 181.152 320.988 184.383 330.454 183.51C333.827 183.31 337.185 182.889 340.509 182.25C349.589 180.193 359.675 178.212 365.901 176.241C368.207 175.277 370.271 173.762 371.934 171.814C382.365 159.202 385.819 150.209 390.399 142.035L390.034 128.691C382.589 128.454 378.628 136.112 374.616 143.295Z" fill="#B16668"/>
<path d="M391.263 128.454C389.115 128.135 386.926 128.443 384.932 129.347C382.938 130.25 381.215 131.714 379.948 133.581C374.87 140.473 365.881 157.027 365.881 157.027C365.881 157.027 368.826 165.331 376.759 166.72L389.495 148.411C389.495 148.411 395.529 135.821 391.263 128.454Z" fill="#455A64"/>
<path d="M418.808 314.506H410.5V330.209H418.808V314.506Z" fill="#B16668"/>
<path d="M390.013 313.677L381.705 313.989L381.289 297.371L390.013 297.059V313.677Z" fill="#B16668"/>
<path d="M419.966 178.578C419.966 187.334 418.757 257.813 418.757 257.813C418.95 260.333 421.083 264.986 420.626 274.657C419.996 287.807 419.153 322.358 419.153 322.358C417.729 323.135 416.156 323.558 414.554 323.594C412.953 323.629 411.364 323.276 409.911 322.562C409.911 322.562 402.059 274.711 400.566 261.679C399.266 250.306 397.062 212.019 397.062 212.019L392.563 256.542C393.523 261.328 393.865 266.23 393.578 271.114C393.193 277.134 390.531 308.529 390.531 308.529C389.097 309.428 387.487 309.969 385.826 310.109C384.164 310.249 382.494 309.985 380.943 309.337C380.943 309.337 376.22 262.067 376.129 256.563C376.017 250.274 378.861 178.481 378.861 178.481L419.966 178.578Z" fill="#37474F"/>
<path d="M410.5 325.664V324.371C409.697 324.759 407.859 332.535 404.558 335.852C401.938 338.491 398.372 341.539 397.448 344.468C396.524 347.398 402.425 349.218 404.873 348.776C407.717 348.216 412.643 346.008 413.882 343.951C415.121 341.894 415.7 338.879 416.706 337.382C417.711 335.885 420.027 334.205 420.565 332.46C420.87 331.501 420.514 329.412 420.098 327.646C419.681 325.879 419.296 324.242 418.788 324.415V325.416C417.621 326.432 416.154 326.981 414.644 326.967C413.394 326.978 410.49 326.741 410.5 325.664Z" fill="#263238"/>
<path d="M381.624 311.157C381.187 311.157 380.842 311.846 379.887 312.988C378.476 314.563 376.825 315.873 375.002 316.865C371.894 318.588 365.861 321.227 363.108 322.594C361.402 323.445 361.483 325.718 363.25 327.021C365.018 328.324 369.283 329.25 374.423 327.99C377.216 327.301 380.852 324.458 383.147 324.608C385.443 324.759 389.749 324.727 391.446 323.435C393.142 322.142 392.461 319.385 391.984 316.972C391.456 314.388 390.806 310.36 390.034 310.51V311.404C389.018 313.074 383.879 313.752 381.685 312.481L381.624 311.157Z" fill="#263238"/>
<path d="M397.062 212.019C392.743 210.522 388.793 208.02 385.504 204.695C385.504 204.695 387.728 209.315 394.371 213.602L392.949 253.365L397.062 212.019Z" fill="#263238"/>
<path d="M415.324 129.757C415.324 129.757 422.15 131.437 421.682 144.566L420.25 165.481V196.854C414.156 204.189 387.068 203.661 377.805 196.273C377.805 196.273 378.821 159.138 379.481 144.846C379.928 134.679 382.132 129.574 391.547 128.454L403.126 128.993L415.324 129.757Z" fill="#1F1F1F"/>
<path opacity="0.1" d="M397.194 137.695L395.701 148.712L392.238 148.648L396.148 149.305L397.194 137.695Z" fill="black"/>
<path d="M406.6 102.477C406.665 106.026 405.398 109.457 403.078 112.016C400.759 114.574 397.575 116.052 394.229 116.122C387.403 116.122 383.361 109.843 381.868 102.477C379.135 88.9926 387.403 88.8203 394.229 88.8203C395.887 88.8553 397.522 89.2364 399.041 89.9417C400.56 90.647 401.933 91.6627 403.082 92.9309C404.231 94.1991 405.133 95.6949 405.736 97.3328C406.34 98.9707 406.633 100.719 406.6 102.477Z" fill="#263238"/>
<path d="M412.907 107.991C412.907 107.991 411.008 117.835 410.246 119.45C409.754 120.436 408.92 121.182 407.92 121.529L408.052 114.604L412.907 107.991Z" fill="#263238"/>
<path d="M410.52 93.9038C410.52 93.9038 411.881 93.5376 413.323 95.9286C414.562 97.9856 414.847 102.595 412.907 107.991L409.332 108.443L410.52 93.9038Z" fill="#263238"/>
<path d="M408.316 108.454C409.027 108.928 410.053 107.377 410.936 106.386C411.82 105.395 414.695 103.974 416.137 107.312C417.579 110.651 414.867 115.239 412.602 116.025C408.682 117.382 408.103 114.604 408.103 114.604L407.798 130.188C402.608 138.707 390.846 138.405 395.072 129.779V125.04C393.33 125.347 391.562 125.444 389.8 125.331C386.926 124.846 385.108 122.337 384.244 118.869C382.843 113.344 382.304 108.885 383.493 98.0179C384.803 86.1063 397.337 85.9878 404.111 90.6943C410.886 95.4008 408.316 108.454 408.316 108.454Z" fill="#B16668"/>
<path d="M409.393 89.1865C409.607 88.6944 409.702 88.1529 409.667 87.6119C409.633 87.0709 409.471 86.5477 409.196 86.0907C408.92 85.6337 408.541 85.2574 408.093 84.9967C407.644 84.7359 407.141 84.599 406.63 84.5985C405.932 84.5986 405.257 84.8577 404.72 85.3308C404.565 84.7859 404.274 84.2953 403.879 83.9102C403.483 83.5252 402.998 83.2599 402.472 83.1421C401.947 83.0243 401.402 83.0584 400.893 83.2407C400.384 83.423 399.931 83.7469 399.581 84.1785C399.319 83.5997 398.929 83.0964 398.444 82.711C397.96 82.3255 397.395 82.0692 396.798 81.9636C396.2 81.8581 395.588 81.9063 395.011 82.1043C394.435 82.3023 393.912 82.6443 393.487 83.1015C393.194 82.146 392.58 81.3381 391.762 80.8316C390.944 80.3252 389.978 80.1556 389.05 80.3552C388.121 80.5548 387.294 81.1096 386.726 81.914C386.159 82.7183 385.89 83.716 385.971 84.717C385.971 84.8677 385.971 85.0078 385.971 85.1585C385.462 84.9851 384.931 84.8978 384.397 84.9C383.71 84.9 383.03 85.0435 382.395 85.3223C381.76 85.601 381.184 86.0096 380.698 86.5246C380.212 87.0396 379.827 87.6511 379.564 88.324C379.301 88.997 379.166 89.7182 379.166 90.4466C379.166 91.175 379.301 91.8962 379.564 92.5692C379.827 93.2421 380.212 93.8536 380.698 94.3686C381.184 94.8837 381.76 95.2922 382.395 95.571C383.03 95.8497 383.71 95.9932 384.397 95.9932C385.181 95.9903 385.954 95.8027 386.662 95.4439C386.824 96.3023 387.251 97.0788 387.876 97.6504C388.502 98.222 389.289 98.5558 390.114 98.5991C390.938 98.6424 391.753 98.3926 392.428 97.8893C393.104 97.3861 393.601 96.6581 393.843 95.8208C394.081 96.3646 394.462 96.824 394.94 97.1437C395.418 97.4634 395.973 97.6298 396.539 97.623C397.104 97.6162 397.655 97.4364 398.127 97.1052C398.598 96.7741 398.969 96.3056 399.195 95.7562C399.514 96.1639 399.917 96.4883 400.373 96.7041C400.829 96.9198 401.326 97.0212 401.825 97.0004C402.324 96.9796 402.812 96.8371 403.251 96.5839C403.689 96.3308 404.067 95.9739 404.355 95.5408C405.371 96.047 405.645 99.5473 405.828 100.56C406.457 103.974 406.975 109.757 408.194 109.779C408.55 109.779 409.921 107.28 410.815 106.386C412.044 105.148 412.297 94.8839 412.297 94.8839C412.297 94.8839 414.044 90.1451 409.393 89.1865Z" fill="#263238"/>
<path d="M407.818 126.699C406.611 129.316 404.878 131.621 402.74 133.451C400.924 134.879 398.815 135.832 396.585 136.23C398.408 137.553 399.9 139.328 400.932 141.4C402.222 144.426 411.586 133.936 411.363 129.553C411.363 129.553 409.85 124.264 407.879 123.888L407.818 126.699Z" fill="#455A64"/>
<path d="M396.575 136.23C396.575 136.23 393.761 134.744 395.021 129.768V125.029L393.792 125.201C392.34 126.688 391.309 128.576 390.816 130.651C390.531 132.008 389.8 138.89 391.08 140.258C392.36 141.626 394.096 136.596 396.575 136.23Z" fill="#455A64"/>
<path d="M395.031 125.04C395.031 125.04 401.45 123.608 403.705 122.294C405.033 121.515 406.111 120.333 406.803 118.901C406.468 120.343 405.867 121.701 405.035 122.897C403.4 125.212 395.031 126.925 395.031 126.925V125.04Z" fill="#9A4A4D"/>
<path d="M396.575 106.677C396.594 106.942 396.687 107.195 396.84 107.405C396.993 107.616 397.201 107.774 397.437 107.861C397.674 107.949 397.93 107.961 398.173 107.896C398.416 107.832 398.636 107.694 398.807 107.499C398.977 107.304 399.09 107.061 399.132 106.799C399.174 106.537 399.144 106.268 399.044 106.024C398.944 105.78 398.779 105.573 398.57 105.427C398.36 105.281 398.115 105.202 397.865 105.202C397.689 105.209 397.515 105.252 397.355 105.33C397.195 105.408 397.051 105.519 396.931 105.656C396.811 105.793 396.718 105.954 396.657 106.129C396.596 106.304 396.568 106.49 396.575 106.677Z" fill="#263238"/>
<path d="M398.647 100.797L401.399 102.477C401.595 102.061 401.638 101.582 401.52 101.134C401.402 100.686 401.131 100.301 400.759 100.053C400.577 99.9443 400.375 99.8769 400.166 99.8555C399.957 99.8341 399.747 99.8591 399.548 99.9291C399.349 99.9991 399.166 100.112 399.011 100.262C398.856 100.411 398.732 100.593 398.647 100.797Z" fill="#263238"/>
<path d="M395.61 116.499L392.675 117.716C392.734 117.934 392.835 118.136 392.971 118.31C393.108 118.484 393.277 118.626 393.468 118.727C393.658 118.828 393.867 118.886 394.08 118.898C394.293 118.909 394.506 118.874 394.706 118.793C395.101 118.602 395.414 118.259 395.581 117.834C395.749 117.409 395.759 116.932 395.61 116.499Z" fill="#9A4A4D"/>
<path d="M384.773 102.046L387.281 99.8919C387.168 99.7065 387.019 99.5482 386.845 99.4274C386.67 99.3065 386.474 99.2258 386.268 99.1903C386.063 99.1548 385.852 99.1653 385.65 99.2212C385.449 99.2772 385.261 99.3772 385.098 99.515C384.756 99.818 384.533 100.245 384.473 100.714C384.412 101.182 384.519 101.657 384.773 102.046Z" fill="#263238"/>
<path d="M385.869 106.279C385.891 106.543 385.985 106.795 386.139 107.004C386.293 107.212 386.501 107.369 386.738 107.455C386.975 107.54 387.23 107.551 387.473 107.486C387.715 107.42 387.934 107.281 388.104 107.086C388.273 106.891 388.385 106.648 388.427 106.386C388.468 106.125 388.437 105.856 388.337 105.613C388.237 105.37 388.072 105.163 387.863 105.017C387.654 104.871 387.41 104.793 387.159 104.792C386.803 104.809 386.467 104.975 386.225 105.253C385.984 105.532 385.856 105.9 385.869 106.279Z" fill="#263238"/>
<path d="M392.756 105.137L392.614 113.753L387.992 112.633L392.756 105.137Z" fill="#9A4A4D"/>
<path d="M442.768 169.499C440.828 162.207 433.739 147.862 430.184 140.98C425.105 131.19 420.342 129.843 415.111 129.768C413.181 132.407 412.968 144.717 419.56 152.062C422.089 157.695 430.113 172.126 430.113 172.126C429.92 173.645 424.486 189.682 422.231 194.84C421.816 195.761 421.091 196.483 420.199 196.865C417.863 197.942 416.797 199.267 414.938 200.796C413.476 202.002 412.358 202.175 412.46 202.649C412.636 203.177 412.993 203.615 413.459 203.879C413.925 204.142 414.467 204.21 414.979 204.07C416.113 203.788 417.212 203.362 418.249 202.799C417.224 204.737 415.906 206.483 414.349 207.969C410.804 211.394 410.987 214.259 417.031 215.271C420.819 215.907 424.191 213.903 428.294 205.492C429.473 203.08 430.732 199.418 432.185 196.316C435.232 189.919 436.247 188.54 438.593 183.726C442.098 176.768 443.621 172.73 442.768 169.499Z" fill="#B16668"/>
<path d="M414.044 129.757C417.655 129.229 421.321 130.151 424.323 132.342C429.493 136.047 439.792 159.515 439.792 159.515C439.792 159.515 440.056 165.438 426.355 167.355L418.869 152.59C418.869 152.59 411.932 145.503 414.044 129.757Z" fill="#455A64"/>
<path d="M319.342 318.663C319.244 318.388 319.189 318.097 319.18 317.802V319.654C319.174 319.762 319.174 319.87 319.18 319.977V320.053C319.169 320.164 319.169 320.276 319.18 320.387V320.548C319.195 320.639 319.216 320.729 319.241 320.817L319.393 321.237C319.454 321.377 319.525 321.517 319.596 321.657C320.209 322.691 321.072 323.532 322.095 324.091C324.351 325.275 326.838 325.877 329.355 325.849C331.871 325.82 334.346 325.163 336.578 323.93C337.106 323.612 337.594 323.225 338.031 322.778C338.116 322.707 338.194 322.628 338.264 322.541C338.314 322.496 338.358 322.445 338.396 322.39C338.48 322.294 338.558 322.193 338.63 322.088C338.889 321.744 339.101 321.364 339.26 320.957C339.299 320.871 339.33 320.781 339.351 320.688L339.422 320.419C339.457 320.274 339.48 320.126 339.493 319.977C339.493 319.859 339.493 319.751 339.493 319.643C339.489 319.601 339.489 319.557 339.493 319.514V317.36C339.506 317.724 339.465 318.087 339.372 318.437C338.845 316.979 337.813 315.788 336.487 315.109C334.232 313.925 331.745 313.321 329.228 313.347C326.712 313.373 324.236 314.029 322.003 315.26C320.744 315.999 319.794 317.214 319.342 318.663ZM339.656 319.126C339.65 319.076 339.65 319.026 339.656 318.976C339.654 319.026 339.657 319.077 339.666 319.126H339.656Z" fill="#656565"/>
<path d="M317.138 95.1854L337.635 94.9269V97.0809L339.666 317.414C339.679 317.778 339.637 318.141 339.544 318.491C339.049 319.973 338.034 321.196 336.71 321.905C334.478 323.139 332.003 323.796 329.486 323.822C326.969 323.848 324.481 323.243 322.227 322.056C321.202 321.503 320.339 320.665 319.728 319.633C319.562 319.356 319.435 319.055 319.352 318.739C319.254 318.463 319.199 318.172 319.19 317.877C319.185 317.827 319.185 317.777 319.19 317.726V317.651L317.138 95.1854Z" fill="#F0F0F0"/>
<path d="M320.185 99.5688C316.123 97.1671 316.123 93.193 320.104 90.6943C322.338 89.4653 324.813 88.8113 327.329 88.7851C329.845 88.7589 332.332 89.3613 334.588 90.5436C338.65 92.9453 338.65 96.9194 334.679 99.418C332.444 100.647 329.967 101.301 327.449 101.327C324.931 101.354 322.443 100.751 320.185 99.5688Z" fill="#656565"/>
<path d="M321.526 79.5474C321.494 79.6355 321.467 79.7254 321.445 79.8166L317.382 93.7423V93.85C317.354 93.9309 317.33 94.0136 317.311 94.0977V94.2484C316.895 96.1332 317.859 98.1149 320.246 99.5365C322.504 100.719 324.992 101.321 327.51 101.295C330.028 101.269 332.505 100.615 334.74 99.3857C337.046 97.9318 337.99 95.9932 337.604 94.1407V94.033C337.557 93.8499 337.5 93.67 337.432 93.4945V93.3761L333.135 79.5689C332.833 78.7536 332.253 78.0885 331.51 77.7057C330.22 77.0266 328.797 76.6805 327.356 76.6955C325.916 76.7104 324.5 77.0861 323.222 77.7918C322.476 78.1417 321.874 78.765 321.526 79.5474Z" fill="#E0E0E0"/>
<path d="M325.243 260.947C325.238 260.957 325.235 260.968 325.235 260.979C325.235 260.99 325.238 261.002 325.243 261.011V261.302C325.296 261.606 325.416 261.891 325.592 262.137C325.769 262.382 325.997 262.579 326.259 262.713C327.063 263.133 327.949 263.346 328.845 263.337C329.741 263.328 330.623 263.096 331.419 262.659C331.675 262.522 331.899 262.326 332.074 262.086C332.25 261.846 332.373 261.567 332.434 261.27V260.893L330.941 88.368L323.659 84.06L325.243 260.947Z" fill="#455A64"/>
<path d="M331.063 100.883L330.941 88.368L323.659 84.06L323.821 101.012C326.217 101.508 328.685 101.464 331.063 100.883Z" fill="#37474F"/>
<path d="M323.832 73.6454L320.155 86.2355C320.112 86.3472 320.078 86.4625 320.053 86.5802C319.728 87.9264 320.419 89.3481 322.085 90.3712C323.679 91.208 325.438 91.6334 327.217 91.6128C328.996 91.5922 330.746 91.1262 332.323 90.2528C333.948 89.2404 334.628 87.8726 334.354 86.5802C334.354 86.5802 334.354 86.5156 334.354 86.494L334.253 86.1386L330.302 73.4731C330.135 73.0051 329.809 72.6207 329.387 72.3961C328.666 72.0056 327.867 71.802 327.056 71.802C326.246 71.802 325.447 72.0056 324.725 72.3961C324.502 72.5263 324.307 72.7048 324.153 72.92C323.999 73.1352 323.89 73.3824 323.832 73.6454Z" fill="#656565"/>
<path opacity="0.1" d="M323.832 73.6454L320.155 86.2355C320.112 86.3472 320.078 86.4625 320.053 86.5802C319.728 87.9264 320.419 89.3481 322.085 90.3712C323.679 91.208 325.438 91.6334 327.217 91.6128C328.996 91.5922 330.746 91.1262 332.323 90.2528C333.948 89.2404 334.628 87.8726 334.354 86.5802C334.354 86.5802 334.354 86.5156 334.354 86.494L334.253 86.1386L330.302 73.4731C330.135 73.0051 329.809 72.6207 329.387 72.3961C328.666 72.0056 327.867 71.802 327.056 71.802C326.246 71.802 325.447 72.0056 324.725 72.3961C324.502 72.5263 324.307 72.7048 324.153 72.92C323.999 73.1352 323.89 73.3824 323.832 73.6454Z" fill="black"/>
<path d="M324.746 72.4714C325.468 72.0809 326.266 71.8773 327.077 71.8773C327.887 71.8773 328.686 72.0809 329.408 72.4714C329.829 72.6961 330.155 73.0805 330.322 73.5484L332.353 80.0105C332.668 81.0121 332.201 82.0998 330.931 82.8968C329.782 83.5293 328.508 83.8666 327.213 83.8816C325.918 83.8965 324.638 83.5887 323.476 82.983C322.949 82.7646 322.511 82.3573 322.239 81.8319C321.966 81.3064 321.875 80.6962 321.983 80.1074L322.054 79.8597L323.821 73.6454C323.892 73.3932 324.01 73.159 324.169 72.9571C324.328 72.7552 324.524 72.5899 324.746 72.4714Z" fill="#656565"/>
<path opacity="0.1" d="M324.776 75.3255C323.476 74.5501 323.466 73.2684 324.776 72.4714C325.498 72.0809 326.297 71.8773 327.107 71.8773C327.918 71.8773 328.716 72.0809 329.438 72.4714C329.719 72.573 329.963 72.7653 330.136 73.0212C330.308 73.2771 330.401 73.5838 330.401 73.8985C330.401 74.2131 330.308 74.5199 330.136 74.7758C329.963 75.0317 329.719 75.2239 329.438 75.3255C328.716 75.7135 327.917 75.9157 327.107 75.9157C326.297 75.9157 325.499 75.7135 324.776 75.3255Z" fill="black"/>
<path d="M325.558 294.528C325.588 294.867 325.704 295.191 325.893 295.466C326.083 295.741 326.339 295.957 326.635 296.089C327.434 296.509 328.314 296.722 329.206 296.713C330.097 296.704 330.973 296.472 331.764 296.036C332.053 295.891 332.299 295.667 332.478 295.386C332.657 295.106 332.761 294.78 332.78 294.442L332.465 261.27C332.404 261.567 332.281 261.846 332.105 262.086C331.929 262.326 331.705 262.522 331.449 262.659C330.653 263.096 329.772 263.328 328.875 263.337C327.979 263.346 327.094 263.133 326.29 262.713C326.028 262.579 325.799 262.382 325.622 262.137C325.446 261.891 325.327 261.606 325.274 261.302L325.558 294.528Z" fill="#FAFAFA"/>
<path d="M326.604 292.945C327.4 292.519 328.278 292.298 329.169 292.298C330.06 292.298 330.938 292.519 331.734 292.945C332.041 293.057 332.307 293.269 332.496 293.55C332.684 293.831 332.785 294.167 332.785 294.512C332.785 294.856 332.684 295.192 332.496 295.473C332.307 295.754 332.041 295.966 331.734 296.079C330.943 296.515 330.066 296.747 329.175 296.756C328.284 296.765 327.403 296.552 326.604 296.132C326.294 296.022 326.024 295.811 325.832 295.529C325.641 295.246 325.538 294.908 325.538 294.56C325.538 294.213 325.641 293.874 325.832 293.592C326.024 293.309 326.294 293.098 326.604 292.988V292.945Z" fill="#F5F5F5"/>
<path d="M320.074 304.124V304.361L320.206 317.446C320.195 317.547 320.195 317.648 320.206 317.748V317.823C320.33 318.636 320.643 319.403 321.116 320.055C321.59 320.707 322.209 321.225 322.918 321.561C324.949 322.625 327.188 323.167 329.454 323.143C331.72 323.119 333.948 322.529 335.959 321.421C337.757 320.29 338.64 318.825 338.62 317.371L338.498 304.124C338.503 304.103 338.503 304.08 338.498 304.059V303.984C338.437 302.573 337.533 301.184 335.766 300.128C333.735 299.064 331.495 298.521 329.229 298.546C326.964 298.57 324.735 299.16 322.725 300.268C322.013 300.624 321.398 301.163 320.935 301.837C320.472 302.511 320.175 303.297 320.074 304.124Z" fill="#656565"/>
<path opacity="0.05" d="M320.074 304.124V304.361L320.206 317.446C320.195 317.547 320.195 317.648 320.206 317.748V317.823C320.33 318.636 320.643 319.403 321.116 320.055C321.59 320.707 322.209 321.225 322.918 321.561C324.949 322.625 327.188 323.167 329.454 323.143C331.72 323.119 333.948 322.529 335.959 321.421C337.757 320.29 338.64 318.825 338.62 317.371L338.498 304.124C338.503 304.103 338.503 304.08 338.498 304.059V303.984C338.437 302.573 337.533 301.184 335.766 300.128C333.735 299.064 331.495 298.521 329.229 298.546C326.964 298.57 324.735 299.16 322.725 300.268C322.013 300.624 321.398 301.163 320.935 301.837C320.472 302.511 320.175 303.297 320.074 304.124Z" fill="black"/>
<path opacity="0.1" d="M322.806 308.238C319.18 306.084 319.149 302.498 322.725 300.247C324.735 299.139 326.964 298.549 329.229 298.524C331.495 298.5 333.735 299.042 335.766 300.107C339.392 302.261 339.422 305.847 335.847 308.087C333.838 309.199 331.61 309.793 329.344 309.819C327.077 309.845 324.837 309.303 322.806 308.238Z" fill="black"/>
<path d="M325.436 68.3897V73.8609C325.445 74.0232 325.496 74.1798 325.584 74.3131C325.672 74.4463 325.793 74.5508 325.934 74.6148C326.304 74.8135 326.713 74.917 327.128 74.917C327.542 74.917 327.951 74.8135 328.321 74.6148C328.456 74.5463 328.572 74.4418 328.657 74.3116C328.743 74.1813 328.795 74.0297 328.809 73.8716L328.859 68.4112C328.851 68.0983 328.766 67.793 328.612 67.5257C328.458 67.2584 328.242 67.0383 327.983 66.8871C327.724 66.7358 327.433 66.6588 327.138 66.6636C326.843 66.6683 326.554 66.7547 326.3 66.9142C326.052 67.0652 325.843 67.279 325.693 67.5365C325.542 67.794 325.454 68.0872 325.436 68.3897Z" fill="#455A64"/>
<path d="M325.477 68.045C325.467 68.1488 325.467 68.2535 325.477 68.3573C325.512 68.4966 325.575 68.6259 325.663 68.7358C325.751 68.8457 325.861 68.9335 325.985 68.9927C326.355 69.1914 326.764 69.295 327.178 69.295C327.593 69.295 328.002 69.1914 328.372 68.9927C328.505 68.9282 328.619 68.8274 328.703 68.7006C328.787 68.5738 328.837 68.4255 328.849 68.2711V68.1634C328.851 68.1312 328.851 68.0988 328.849 68.0665C328.816 67.8709 328.747 67.6842 328.646 67.5172C328.533 67.3133 328.383 67.1351 328.205 66.9928C328.026 66.8505 327.823 66.7468 327.607 66.6878C327.391 66.6288 327.166 66.6155 326.945 66.6488C326.725 66.6821 326.512 66.7613 326.32 66.8818C326.109 67.0003 325.925 67.1655 325.779 67.3662C325.634 67.5669 325.531 67.7984 325.477 68.045Z" fill="#263238"/>
</g>
<path d="M199.147 402.691L306.413 337.026L409.555 400.171L302.289 465.836L199.147 402.691Z" fill="#656565"/>
<path opacity="0.3" d="M199.147 402.691L306.413 337.026L409.555 400.171L302.289 465.836L199.147 402.691Z" fill="black"/>
<path d="M199.147 402.691L186.765 395.12L294.032 329.444L306.413 337.026L199.147 402.691Z" fill="#656565"/>
<path opacity="0.1" d="M199.147 402.691L186.765 395.12L294.032 329.444L306.413 337.026L199.147 402.691Z" fill="#030303"/>
<path d="M186.765 395.12V410.273L302.289 481V465.836L186.765 395.12Z" fill="#656565"/>
<path opacity="0.2" d="M186.765 395.12V410.273L302.289 481V465.836L186.765 395.12Z" fill="black"/>
<path d="M302.289 465.836L409.555 400.171V415.324L302.289 481V465.836Z" fill="#656565"/>
<path d="M389.546 377.737L306.413 337.026L199.147 402.723L302.289 453.246L395.112 396.38C400.78 392.901 406.285 387.032 405.939 379.32C402.709 381.033 397.509 381.668 389.546 377.737Z" fill="white"/>
<g opacity="0.7">
<path d="M312.517 359.59C312.03 360.137 311.733 360.843 311.674 361.593C311.156 364.436 309.988 365.901 306.738 368.055C305.174 369.056 305.031 369.843 304.056 370.941C301.781 373.483 300.826 371.544 298.673 370.618C298.054 370.36 297.332 370.769 297.454 371.167C297.942 372.89 300.664 377.694 296.012 377.985C293.615 378.135 292.833 376.682 290.832 375.928C288.567 375.077 289.816 380.236 290.04 381.14C290.231 382.144 290.326 383.165 290.324 384.188C290.384 384.808 290.304 385.435 290.091 386.015C289.877 386.596 289.536 387.114 289.095 387.527C288.561 387.858 287.957 388.04 287.338 388.055C285.698 388.275 284.032 388.14 282.443 387.656C282.707 386.988 283.326 386.579 283.59 385.825C283.873 385.021 283.967 384.156 283.865 383.305C283.624 381.434 282.789 379.705 281.498 378.405C280.411 377.328 277.273 375.701 275.079 376.735C272.885 377.769 274.063 381.043 274.602 382.347C275.434 384.21 277.435 386.073 279.812 387.548C278.539 388.228 277.164 388.665 275.749 388.841C273.444 389.218 271.595 389.067 270.884 390.693C270.518 391.544 271.219 392.998 270.417 393.698C268.924 395.001 267.37 393.612 266.06 393.763C264.323 393.978 263.785 394.301 263.774 395.508C263.774 395.884 264.313 396.445 264.201 396.778L264.485 397.241C263.698 397.398 262.885 397.289 262.159 396.929C261.845 396.843 260.128 396.132 260.128 396.143C259.925 396.065 259.705 396.055 259.497 396.112C259.288 396.17 259.101 396.293 258.96 396.466C258.147 398.243 258.777 399.966 259.112 401.711C256.593 398.049 254.877 394.344 250.113 391.275C247.523 389.616 243.004 387.538 239.774 389.789C234.919 393.224 236.554 402.519 243.197 404.77C243.334 404.794 243.475 404.786 243.608 404.745C243.742 404.704 243.865 404.631 243.969 404.533L244.517 403.984C244.984 403.52 244.253 402.907 243.633 403.456C242.394 404.533 239.337 398.771 239.225 398.372C238.677 396.294 238.504 393.73 239.916 391.76C242.902 387.57 249.291 392.147 251.728 394.301C255.365 397.532 256.441 401.226 259.305 404.63C259.773 405.179 260.941 405.136 261.073 404.49C261.53 402.217 260.057 399.977 260.514 397.737C262.322 398.62 265.389 400.225 266.537 398.555C267.096 397.758 265.917 396.821 266.283 395.981C266.832 394.7 266.659 395.486 268.375 395.744C269.003 395.884 269.65 395.906 270.285 395.809C270.918 395.691 271.487 395.326 271.879 394.786C273.312 393.041 271.666 391.2 275.373 390.176C277.405 389.595 279.142 389.81 280.97 388.776L281.447 388.475L282.544 389.002C285.693 390.392 289.481 390.079 291.096 387.839C291.971 386.428 292.356 384.737 292.183 383.057C292.244 381.949 292.244 380.838 292.183 379.729C292.034 379.05 291.826 378.387 291.563 377.748C293.321 378.825 294.854 380.3 297.536 379.439C301.355 378.211 300.481 374.958 299.679 372.578C301.923 373.849 303.965 375.152 305.58 372.33C306.443 370.823 306.728 369.81 308.627 368.615C309.663 368.024 310.643 367.328 311.552 366.536C313.583 364.49 312.385 362.228 313.898 360.171C314.294 359.568 313.126 358.943 312.517 359.59ZM278.309 384.63C276.785 383.294 275.445 381.28 275.77 379.6C275.973 378.523 277.161 377.242 279.111 378.319C280.868 379.288 281.823 382.056 281.965 383.413C282.048 384.014 281.991 384.627 281.8 385.199C281.609 385.771 281.289 386.286 280.868 386.698C279.975 386.066 279.12 385.375 278.309 384.63Z" fill="black"/>
<path d="M333.785 376.218C333.11 376.497 332.455 376.828 331.825 377.209C330.556 377.944 329.127 378.315 327.681 378.286L327.752 378.092C328.219 376.261 326.889 373.978 325.081 372.514C324.431 371.896 323.62 371.503 322.754 371.387C321.888 371.272 321.01 371.439 320.236 371.867C318.357 373.063 319.576 375.324 320.703 376.542C321.89 377.766 323.368 378.626 324.979 379.029C324.15 379.745 323.213 380.306 322.207 380.688C320.551 381.388 319.779 381.366 319.718 382.842C319.775 383.625 319.918 384.399 320.145 385.147C320.419 386.633 320.145 388.378 317.098 388.195C315.764 388.083 314.46 387.718 313.248 387.118C312.659 386.859 312.05 387.118 311.999 387.516C311.826 388.755 312.344 390.004 312.283 391.243C312.121 394.7 307.479 391.243 306.037 390.219C305.285 389.67 304.422 390.219 304.717 390.812C305.671 392.707 305.235 395.12 304.717 397.058C304.452 398.06 304.056 399.999 302.614 400.666C301.995 400.96 301.307 401.051 300.639 400.926C299.971 400.801 299.353 400.467 298.866 399.966C300.443 397.198 300.942 393.888 300.258 390.736C299.862 389.25 298.856 387.505 296.012 388.356C292.599 389.433 292.965 392.341 293.625 394.183C294.476 396.34 295.675 398.323 297.17 400.042C295.23 403.467 291.665 406.331 287.145 409.175C286.566 409.552 287.054 410.349 287.846 409.886C292.518 407.15 295.87 404.737 298.236 401.054C299.031 401.823 300.057 402.268 301.133 402.31C302.208 402.351 303.262 401.986 304.107 401.28C306.656 399.309 307.367 395.497 306.839 392.535C308.414 393.698 310.394 394.829 312.304 394.183C314.904 393.289 313.898 390.467 313.644 388.615C315.615 389.401 318.123 390.123 320.195 389.272C323.243 388.012 321.211 385.567 321.435 383.833C321.648 381.787 324.157 382.002 325.914 380.709C326.382 380.361 326.787 379.927 327.112 379.428C330.21 379.633 333.379 378.588 335.156 376.294C335.187 376.255 335.209 376.209 335.222 376.161C335.236 376.112 335.239 376.061 335.234 376.011C335.228 375.961 335.213 375.912 335.189 375.868C335.165 375.824 335.134 375.786 335.096 375.755L334.76 375.454C334.222 374.937 333.379 375.809 333.785 376.218ZM296.591 396.746C295.809 395.421 293.656 391.943 294.844 390.284C294.983 390.106 295.152 389.956 295.342 389.842C295.651 389.667 295.992 389.562 296.341 389.534C296.691 389.506 297.043 389.556 297.373 389.681C297.869 389.884 298.294 390.244 298.59 390.713C298.886 391.181 299.039 391.734 299.029 392.298C299.017 393.203 298.949 394.106 298.826 395.001C298.713 396.289 298.39 397.547 297.871 398.717C297.41 398.086 296.982 397.428 296.591 396.746ZM321.648 375.658C321.29 375.329 321.055 374.874 320.988 374.377C321.007 373.99 321.159 373.624 321.415 373.348C321.672 373.072 322.015 372.906 322.379 372.88C323.71 372.74 324.461 373.774 325.162 374.743C325.304 374.937 326.594 377.974 326.005 377.855C324.378 377.678 322.855 376.918 321.689 375.701L321.648 375.658Z" fill="black"/>
<path d="M293.128 421.657C293.869 424.888 296.408 427.688 298.297 430.273C300.291 433.12 302.734 435.58 305.519 437.543C306.321 438.081 306.951 437.241 306.656 436.8C306.213 435.927 305.663 435.119 305.021 434.398C304.798 434.183 304.28 434.333 304.005 434.56C302.248 432.729 300.958 430.704 299.486 428.808C297.718 426.59 295.118 423.703 294.326 421.269C294.164 420.58 293.016 421.205 293.128 421.657Z" fill="black"/>
<path d="M309.561 417.963C307.785 417.576 305.956 417.543 304.168 417.866C304.329 417.645 304.531 417.461 304.761 417.325C304.991 417.189 305.245 417.104 305.507 417.075C305.769 417.046 306.033 417.073 306.285 417.155C306.537 417.238 306.77 417.373 306.971 417.554C307.571 417.931 308.363 417.048 307.824 416.692C307.12 416.307 306.333 416.122 305.54 416.156C304.748 416.19 303.978 416.442 303.305 416.886C302.812 417.078 302.376 417.406 302.042 417.835C301.708 418.265 301.489 418.781 301.405 419.331C301.405 419.331 301.405 419.395 301.405 419.428C301.4 420.225 301.482 421.02 301.649 421.797C302.055 424.565 304.016 426.827 306.149 429.261C306.967 430.294 308.011 431.099 309.19 431.605C310.369 432.112 311.647 432.306 312.913 432.169C319.586 431.404 317.991 424.845 315.828 422.346C314.233 420.44 313.004 418.685 309.561 417.963ZM315.056 429.433C310.425 434.01 305.316 426.342 304.127 424.457C303.472 423.41 303.119 422.182 303.112 420.925C303.138 420.402 303.238 419.887 303.406 419.395C311.379 416.574 319.078 425.459 315.056 429.433Z" fill="black"/>
<path d="M317.219 413.353C317.047 413.3 316.863 413.306 316.695 413.372C316.527 413.438 316.383 413.56 316.285 413.72C316.163 414.043 316.011 414.355 315.899 414.678C315.787 415.001 316.092 414.99 316.366 414.969C316.503 414.968 316.637 414.933 316.758 414.868C316.88 414.802 316.986 414.708 317.067 414.592C317.179 414.42 317.331 414.237 317.453 414.064C317.509 414.01 317.549 413.94 317.567 413.862C317.586 413.785 317.583 413.703 317.558 413.627C317.533 413.551 317.487 413.485 317.427 413.436C317.367 413.388 317.295 413.359 317.219 413.353Z" fill="#364A54"/>
<path d="M329.469 405.545C328.401 405.098 327.243 404.949 326.105 405.111C324.967 405.273 323.887 405.741 322.968 406.471C320.937 408.087 321.516 410.09 322.085 411.964C322.257 412.535 323.456 412.083 323.334 411.641C323.019 410.833 322.821 409.98 322.745 409.11C324.37 411.156 325.792 413.364 327.478 415.497C327.336 415.691 327.204 415.884 327.041 416.068C326.676 416.509 327.549 417.317 328.189 416.768L328.372 416.584C329.793 418.303 331.43 419.807 333.237 421.054C334.07 421.679 335.106 420.699 334.313 420.149C332.447 418.846 330.759 417.277 329.296 415.486C329.773 414.764 330.139 413.978 330.586 413.257C331.234 412.375 331.733 411.38 332.059 410.316C332.465 408.593 331.815 406.73 329.469 405.545ZM329.469 407.021C331.5 408.625 330.637 410.467 329.55 412.19C329.123 412.869 328.717 413.58 328.29 414.28C326.665 412.223 325.243 410.101 323.669 408.152C323.588 408.057 323.481 407.989 323.364 407.959C323.246 407.928 323.123 407.935 323.009 407.979C323.009 407.915 323.07 407.85 323.11 407.785C324.268 406.138 327.539 405.481 329.489 407.021H329.469Z" fill="black"/>
<path d="M358.111 398.329C357.557 399.276 356.71 399.988 355.714 400.343C353.286 401.334 351.072 400.117 349.406 398.954C347.944 397.877 347.568 396.445 346.359 395.324C345.885 394.795 345.299 394.392 344.649 394.149C343.999 393.905 343.305 393.829 342.622 393.924C338.884 394.807 340.59 399.471 341.098 402.077C339.966 401.351 338.673 400.957 337.35 400.936C337.217 400.92 337.082 400.935 336.956 400.982C336.829 401.029 336.714 401.105 336.619 401.205C336.305 401.667 336.107 402.206 336.045 402.771C335.983 403.337 336.058 403.91 336.263 404.436C334.791 403.143 333.369 401.83 331.927 400.526C331.307 399.956 330.281 400.742 330.779 401.205C333.247 403.499 335.664 405.793 338.386 407.979C339.087 408.55 339.829 408.044 339.524 407.182C339.27 406.493 338.356 405.965 337.95 405.351C337.713 405.055 337.572 404.687 337.544 404.301C337.517 403.914 337.605 403.528 337.797 403.197C337.94 403.031 338.114 402.899 338.308 402.81C338.503 402.721 338.713 402.677 338.925 402.68C339.346 402.686 339.762 402.774 340.154 402.939C340.733 403.154 342.764 404.781 342.703 403.273C342.656 401.807 342.52 400.347 342.297 398.9C342.123 398.267 342.123 397.595 342.297 396.961C342.41 396.678 342.59 396.43 342.819 396.242C343.049 396.053 343.32 395.93 343.607 395.884C343.892 395.843 344.183 395.864 344.46 395.945C344.738 396.027 344.997 396.167 345.222 396.358C346.319 397.274 346.908 398.588 347.944 399.589C348.692 400.327 349.545 400.934 350.473 401.388C354.454 403.24 359.055 401.033 359.289 398.329C359.38 397.748 358.253 397.888 358.111 398.329Z" fill="black"/>
</g>
<defs>
<filter id="filter0_d_2_2" x="67.2299" y="33" width="191.525" height="394.01" filterUnits="userSpaceOnUse" color-interpolation-filters="sRGB">
<feFlood flood-opacity="0" result="BackgroundImageFix"/>
<feColorMatrix in="SourceAlpha" type="matrix" values="0 0 0 0 0 0 0 0 0 0 0 0 0 0 0 0 0 0 127 0" result="hardAlpha"/>
<feOffset dy="4"/>
<feGaussianBlur stdDeviation="2"/>
<feComposite in2="hardAlpha" operator="out"/>
<feColorMatrix type="matrix" values="0 0 0 0 0 0 0 0 0 0 0 0 0 0 0 0 0 0 0.25 0"/>
<feBlend mode="normal" in2="BackgroundImageFix" result="effect1_dropShadow_2_2"/>
<feBlend mode="normal" in="SourceGraphic" in2="effect1_dropShadow_2_2" result="shape"/>
</filter>
<filter id="filter1_d_2_2" x="309.577" y="66.6309" width="161.423" height="315.211" filterUnits="userSpaceOnUse" color-interpolation-filters="sRGB">
<feFlood flood-opacity="0" result="BackgroundImageFix"/>
<feColorMatrix in="SourceAlpha" type="matrix" values="0 0 0 0 0 0 0 0 0 0 0 0 0 0 0 0 0 0 127 0" result="hardAlpha"/>
<feOffset dx="12" dy="17"/>
<feGaussianBlur stdDeviation="8"/>
<feComposite in2="hardAlpha" operator="out"/>
<feColorMatrix type="matrix" values="0 0 0 0 0 0 0 0 0 0 0 0 0 0 0 0 0 0 0.25 0"/>
<feBlend mode="normal" in2="BackgroundImageFix" result="effect1_dropShadow_2_2"/>
<feBlend mode="normal" in="SourceGraphic" in2="effect1_dropShadow_2_2" result="shape"/>
</filter>
</defs>
</svg>
